<?xml version="1.0" encoding="UTF-8"?>
<svg width="192" height="192" viewBox="0 0 192 192" xmlns="http://www.w3.org/2000/svg">
  <!-- Background gradient -->
  <defs>
    <linearGradient id="bg" x1="0%" y1="0%" x2="100%" y2="100%">
      <stop offset="0%" style="stop-color:#320e61;stop-opacity:1" />
      <stop offset="50%" style="stop-color:#571086;stop-opacity:1" />
      <stop offset="100%" style="stop-color:#764ba2;stop-opacity:1" />
    </linearGradient>
    <linearGradient id="compass" x1="0%" y1="0%" x2="100%" y2="100%">
      <stop offset="0%" style="stop-color:#ffd700;stop-opacity:1" />
      <stop offset="100%" style="stop-color:#ffb347;stop-opacity:1" />
    </linearGradient>
  </defs>
  
  <!-- Background -->
  <rect width="192" height="192" rx="24" fill="url(#bg)"/>
  
  <!-- Book/Journal -->
  <rect x="36" y="45" width="120" height="102" rx="6" fill="#ffffff" stroke="#2c0845" stroke-width="2"/>
  
  <!-- Binding -->
  <rect x="36" y="45" width="18" height="102" rx="6" fill="#2c0845"/>
  <line x1="42" y1="55" x2="42" y2="137" stroke="#571086" stroke-width="2"/>
  <line x1="48" y1="55" x2="48" y2="137" stroke="#571086" stroke-width="2"/>
  
  <!-- Page lines -->
  <line x1="65" y1="65" x2="135" y2="65" stroke="#2c0845" stroke-width="2" stroke-linecap="round"/>
  <line x1="65" y1="80" x2="125" y2="80" stroke="#666666" stroke-width="1.5" stroke-linecap="round"/>
  <line x1="65" y1="95" x2="130" y2="95" stroke="#666666" stroke-width="1.5" stroke-linecap="round"/>
  <line x1="65" y1="110" x2="120" y2="110" stroke="#666666" stroke-width="1.5" stroke-linecap="round"/>
  
  <!-- Nautical compass -->
  <circle cx="125" cy="115" r="20" fill="url(#compass)" stroke="#2c0845" stroke-width="2"/>
  <circle cx="125" cy="115" r="3" fill="#2c0845"/>
  
  <!-- Compass rose -->
  <g stroke="#2c0845" stroke-width="2" stroke-linecap="round">
    <!-- Main directions -->
    <line x1="125" y1="100" x2="125" y2="105"/>
    <line x1="140" y1="115" x2="135" y2="115"/>
    <line x1="125" y1="130" x2="125" y2="125"/>
    <line x1="110" y1="115" x2="115" y2="115"/>
    
    <!-- Diagonal directions -->
    <line x1="132" y1="108" x2="129" y2="111"/>
    <line x1="132" y1="122" x2="129" y2="119"/>
    <line x1="118" y1="122" x2="121" y2="119"/>
    <line x1="118" y1="108" x2="121" y2="111"/>
  </g>
  
  <!-- Anchor symbol -->
  <g fill="#2c0845" stroke="#2c0845" stroke-width="1.5">
    <circle cx="85" cy="120" r="3" fill="none"/>
    <line x1="85" y1="123" x2="85" y2="135"/>
    <path d="M78 132 Q85 138 92 132" fill="none"/>
    <line x1="80" y1="120" x2="90" y2="120"/>
  </g>
  
  <!-- Quill pen -->
  <g>
    <path d="M70 125 L78 117 L76 115 L68 123 Z" fill="#8b4513"/>
    <ellipse cx="78.5" cy="116.5" rx="1.5" ry="2" fill="#2c0845"/>
    <line x1="65" y1="128" x2="70" y2="125" stroke="#2c0845" stroke-width="1"/>
  </g>
  
  <!-- Small decorative stars -->
  <g fill="#ffffff" opacity="0.8">
    <polygon points="160,30 162,36 168,36 163,40 165,46 160,42 155,46 157,40 152,36 158,36" transform="scale(0.6)"/>
    <polygon points="25,160 27,166 33,166 28,170 30,176 25,172 20,176 22,170 17,166 23,166" transform="scale(0.5)"/>
  </g>
</svg>