<?xml version="1.0" encoding="UTF-8"?>
<svg width="512" height="512" viewBox="0 0 512 512" xmlns="http://www.w3.org/2000/svg">
  <!-- Background gradient -->
  <defs>
    <linearGradient id="bg512" x1="0%" y1="0%" x2="100%" y2="100%">
      <stop offset="0%" style="stop-color:#320e61;stop-opacity:1" />
      <stop offset="50%" style="stop-color:#571086;stop-opacity:1" />
      <stop offset="100%" style="stop-color:#764ba2;stop-opacity:1" />
    </linearGradient>
    <linearGradient id="compass512" x1="0%" y1="0%" x2="100%" y2="100%">
      <stop offset="0%" style="stop-color:#ffd700;stop-opacity:1" />
      <stop offset="100%" style="stop-color:#ffb347;stop-opacity:1" />
    </linearGradient>
    <radialGradient id="bookShadow" cx="50%" cy="50%" r="50%">
      <stop offset="0%" style="stop-color:#000000;stop-opacity:0.1" />
      <stop offset="100%" style="stop-color:#000000;stop-opacity:0.3" />
    </radialGradient>
  </defs>
  
  <!-- Background -->
  <rect width="512" height="512" rx="64" fill="url(#bg512)"/>
  
  <!-- Book shadow -->
  <rect x="98" y="122" width="316" height="268" rx="16" fill="url(#bookShadow)"/>
  
  <!-- Book/Journal -->
  <rect x="96" y="120" width="320" height="272" rx="16" fill="#ffffff" stroke="#2c0845" stroke-width="4"/>
  
  <!-- Binding -->
  <rect x="96" y="120" width="48" height="272" rx="16" fill="#2c0845"/>
  <line x1="112" y1="140" x2="112" y2="372" stroke="#571086" stroke-width="4"/>
  <line x1="128" y1="140" x2="128" y2="372" stroke="#571086" stroke-width="4"/>
  
  <!-- Binding details -->
  <circle cx="120" cy="160" r="4" fill="#571086"/>
  <circle cx="120" cy="200" r="4" fill="#571086"/>
  <circle cx="120" cy="240" r="4" fill="#571086"/>
  <circle cx="120" cy="280" r="4" fill="#571086"/>
  <circle cx="120" cy="320" r="4" fill="#571086"/>
  <circle cx="120" cy="360" r="4" fill="#571086"/>
  
  <!-- Page lines -->
  <line x1="172" y1="160" x2="360" y2="160" stroke="#2c0845" stroke-width="4" stroke-linecap="round"/>
  <line x1="172" y1="190" x2="340" y2="190" stroke="#666666" stroke-width="3" stroke-linecap="round"/>
  <line x1="172" y1="220" x2="350" y2="220" stroke="#666666" stroke-width="3" stroke-linecap="round"/>
  <line x1="172" y1="250" x2="330" y2="250" stroke="#666666" stroke-width="3" stroke-linecap="round"/>
  <line x1="172" y1="280" x2="345" y2="280" stroke="#666666" stroke-width="3" stroke-linecap="round"/>
  
  <!-- Nautical compass (larger and more detailed) -->
  <circle cx="340" cy="310" r="54" fill="url(#compass512)" stroke="#2c0845" stroke-width="4"/>
  <circle cx="340" cy="310" r="8" fill="#2c0845"/>
  
  <!-- Compass rose (detailed) -->
  <g stroke="#2c0845" stroke-width="4" stroke-linecap="round">
    <!-- Main directions -->
    <line x1="340" y1="268" x2="340" y2="280"/>
    <line x1="382" y1="310" x2="370" y2="310"/>
    <line x1="340" y1="352" x2="340" y2="340"/>
    <line x1="298" y1="310" x2="310" y2="310"/>
    
    <!-- Secondary directions -->
    <line x1="366" y1="284" x2="356" y2="294"/>
    <line x1="366" y1="336" x2="356" y2="326"/>
    <line x1="314" y1="336" x2="324" y2="326"/>
    <line x1="314" y1="284" x2="324" y2="294"/>
  </g>
  
  <!-- Compass inner ring -->
  <circle cx="340" cy="310" r="35" fill="none" stroke="#2c0845" stroke-width="2"/>
  
  <!-- North indicator -->
  <polygon points="340,275 335,285 345,285" fill="#e74c3c"/>
  
  <!-- Anchor symbol (larger and more detailed) -->
  <g fill="#2c0845" stroke="#2c0845" stroke-width="3">
    <circle cx="220" cy="320" r="8" fill="none"/>
    <line x1="220" y1="328" x2="220" y2="360"/>
    <path d="M200 350 Q220 370 240 350" fill="none" stroke-width="4"/>
    <line x1="200" y1="320" x2="240" y2="320" stroke-width="4"/>
    <!-- Anchor ring -->
    <circle cx="220" cy="310" r="6" fill="none" stroke-width="3"/>
  </g>
  
  <!-- Quill pen (larger and more detailed) -->
  <g>
    <path d="M180 340 L200 320 L196 316 L176 336 Z" fill="#8b4513"/>
    <ellipse cx="201" cy="319" rx="4" ry="6" fill="#2c0845"/>
    <line x1="170" y1="346" x2="180" y2="340" stroke="#2c0845" stroke-width="3"/>
    <!-- Feather details -->
    <path d="M196 316 Q190 310 185 315" fill="none" stroke="#654321" stroke-width="2"/>
    <path d="M198 318 Q192 312 187 317" fill="none" stroke="#654321" stroke-width="1"/>
  </g>
  
  <!-- Decorative nautical elements -->
  <g fill="#ffffff" opacity="0.6">
    <!-- Stars -->
    <polygon points="450,80 454,92 466,92 457,100 461,112 450,105 439,112 443,100 434,92 446,92" transform="scale(1.2)"/>
    <polygon points="60,420 64,432 76,432 67,440 71,452 60,445 49,452 53,440 44,432 56,432" transform="scale(1.0)"/>
    <polygon points="80,100 82,106 88,106 83,110 85,116 80,113 75,116 77,110 72,106 78,106" transform="scale(0.8)"/>
    
    <!-- Rope knot decoration -->
    <circle cx="380" cy="180" r="3" fill="none" stroke="#ffffff" stroke-width="2" opacity="0.4"/>
    <circle cx="380" cy="180" r="8" fill="none" stroke="#ffffff" stroke-width="2" opacity="0.4"/>
  </g>
  
  <!-- Subtle texture overlay -->
  <rect width="512" height="512" rx="64" fill="url(#bookShadow)" opacity="0.1"/>
</svg>